<svg width="24" height="24" viewBox="0 0 24 24" fill="none" xmlns="http://www.w3.org/2000/svg">
<path d="M13.4887 12L21.6917 3.79695C22.1028 3.38586 22.1028 2.71938 21.6917 2.30832C21.2806 1.89723 20.6141 1.89723 20.203 2.30832L12 10.5114L3.79695 2.30832C3.38586 1.89723 2.71937 1.89723 2.30832 2.30832C1.89727 2.71941 1.89723 3.3859 2.30832 3.79695L10.5113 12L2.30832 20.2031C1.89723 20.6142 1.89723 21.2806 2.30832 21.6917C2.71941 22.1028 3.38589 22.1027 3.79695 21.6917L12 13.4886L20.203 21.6917C20.6141 22.1028 21.2806 22.1027 21.6916 21.6917C22.1027 21.2806 22.1027 20.6141 21.6916 20.2031L13.4887 12Z" fill="#A6A6A6"/>
</svg>
