<svg width="24" height="24" viewBox="0 0 24 24" fill="none" xmlns="http://www.w3.org/2000/svg">
<path d="M10.9768 2C6.0298 2 2 6.02842 2 10.9738C2 15.9191 6.0298 19.9554 10.9768 19.9554C13.0898 19.9554 15.0332 19.2151 16.5691 17.9861L20.3083 21.722C20.497 21.9029 20.749 22.0026 21.0104 21.9999C21.2718 21.9973 21.5217 21.8924 21.7067 21.7078C21.8916 21.5231 21.9969 21.2735 21.9999 21.0122C22.003 20.7509 21.9035 20.4988 21.7229 20.3099L17.9837 16.572C19.2142 15.0343 19.9556 13.0885 19.9556 10.9738C19.9556 6.02842 15.9238 2 10.9768 2V2ZM10.9768 3.99463C14.8455 3.99463 17.9584 7.10641 17.9584 10.9738C17.9584 14.8412 14.8455 17.9608 10.9768 17.9608C7.10813 17.9608 3.99528 14.8412 3.99528 10.9738C3.99528 7.10641 7.10813 3.99463 10.9768 3.99463Z" fill="black"/>
</svg>
