<svg width="30" height="30" viewBox="0 0 30 30" fill="none" xmlns="http://www.w3.org/2000/svg">
<path d="M23.3631 27.4999H6.63693C6.2305 27.503 5.82813 27.4118 5.4565 27.2325C5.08486 27.0531 4.75245 26.7897 4.48131 26.4598C4.21017 26.1298 4.0065 25.7408 3.8838 25.3185C3.76109 24.8962 3.72216 24.4503 3.76959 24.0104L5.23193 10.4687C5.31427 9.70463 5.65235 9.00049 6.18142 8.49115C6.71049 7.98181 7.39336 7.70307 8.09927 7.70832C8.35276 7.70832 8.59586 7.81807 8.77511 8.01342C8.95435 8.20877 9.05505 8.47372 9.05505 8.74999C9.05505 9.02626 8.95435 9.29121 8.77511 9.48656C8.59586 9.68191 8.35276 9.79165 8.09927 9.79165C7.86446 9.7898 7.63724 9.88223 7.46095 10.0513C7.28467 10.2204 7.17166 10.4542 7.14349 10.7083L5.68115 24.2499C5.66485 24.3969 5.67746 24.5459 5.71814 24.6871C5.75882 24.8282 5.82663 24.9584 5.91707 25.0687C6.0075 25.1791 6.11847 25.2672 6.2426 25.3272C6.36672 25.3872 6.50115 25.4177 6.63693 25.4166H23.3631C23.4988 25.4177 23.6333 25.3872 23.7574 25.3272C23.8815 25.2672 23.9925 25.1791 24.0829 25.0687C24.1734 24.9584 24.2412 24.8282 24.2819 24.6871C24.3225 24.5459 24.3351 24.3969 24.3189 24.2499L22.8565 10.7083C22.8283 10.4542 22.7153 10.2204 22.539 10.0513C22.3628 9.88223 22.1355 9.7898 21.9007 9.79165H11.6548C11.4013 9.79165 11.1582 9.68191 10.9789 9.48656C10.7997 9.29121 10.699 9.02626 10.699 8.74999C10.699 8.47372 10.7997 8.20877 10.9789 8.01342C11.1582 7.81807 11.4013 7.70832 11.6548 7.70832H21.9007C22.6066 7.70307 23.2895 7.98181 23.8186 8.49115C24.3476 9.00049 24.6857 9.70463 24.7681 10.4687L26.2304 24.0104C26.2778 24.4503 26.2389 24.8962 26.1162 25.3185C25.9935 25.7408 25.7898 26.1298 25.5187 26.4598C25.2475 26.7897 24.9151 27.0531 24.5435 27.2325C24.1719 27.4118 23.7695 27.503 23.3631 27.4999V27.4999Z" fill="black"/>
<path d="M19.102 13.9583C18.8485 13.9583 18.6054 13.8486 18.4262 13.6532C18.2469 13.4579 18.1462 13.1929 18.1462 12.9166V7.70832C18.1462 6.87952 17.8441 6.08467 17.3064 5.49862C16.7687 4.91257 16.0394 4.58333 15.2789 4.58333C14.5184 4.58333 13.7891 4.91257 13.2514 5.49862C12.7137 6.08467 12.4116 6.87952 12.4116 7.70832V12.9166C12.4116 13.1929 12.3109 13.4579 12.1316 13.6532C11.9524 13.8486 11.7093 13.9583 11.4558 13.9583C11.2023 13.9583 10.9592 13.8486 10.7799 13.6532C10.6007 13.4579 10.5 13.1929 10.5 12.9166V7.70832C10.5 6.32699 11.0035 5.00223 11.8997 4.02548C12.7959 3.04873 14.0115 2.5 15.2789 2.5C16.5463 2.5 17.7619 3.04873 18.6581 4.02548C19.5543 5.00223 20.0578 6.32699 20.0578 7.70832V12.9166C20.0578 13.1929 19.9571 13.4579 19.7779 13.6532C19.5986 13.8486 19.3555 13.9583 19.102 13.9583Z" fill="black"/>
<rect x="17" y="3" width="8" height="8" rx="4" fill="#EBA352"/>
</svg>
