<svg width="25" height="24" viewBox="0 0 25 24" fill="none" xmlns="http://www.w3.org/2000/svg">
<path d="M12.3115 21C11.8324 21.0005 11.3633 20.8505 10.96 20.568C9.81587 19.7645 7.61541 18.1155 5.75409 16.102C3.46988 13.629 2.31152 11.3 2.31152 9.17798C2.31152 7.70348 2.71061 6.35248 3.46576 5.27147C4.18185 4.2436 5.19341 3.50853 6.33793 3.18435C7.48245 2.86017 8.6935 2.96569 9.77651 3.48397C10.7458 3.94097 11.6104 4.71147 12.3115 5.73398C13.0127 4.70897 13.8772 3.93847 14.8465 3.48397C15.9296 2.96569 17.1406 2.86017 18.2851 3.18435C19.4296 3.50853 20.4412 4.2436 21.1573 5.27147C21.9124 6.35248 22.3115 7.70348 22.3115 9.17798C22.3115 11.3 21.1532 13.628 18.869 16.1C17.0076 18.1135 14.8081 19.7625 13.663 20.566C13.2599 20.8492 12.7908 20.9999 12.3115 21V21ZM7.65065 4.25297C7.28867 4.25262 6.92824 4.30474 6.5788 4.40797C5.70175 4.67103 4.92772 5.24076 4.37514 6.02998C3.77377 6.89098 3.45569 7.97998 3.45569 9.17998C3.45569 10.956 4.49962 12.986 6.55912 15.214C8.34402 17.147 10.4708 18.739 11.5783 19.514C11.797 19.6666 12.0511 19.7477 12.3106 19.7477C12.5701 19.7477 12.8242 19.6666 13.0429 19.514C14.1504 18.737 16.2754 17.145 18.0621 15.214C20.1216 12.986 21.1655 10.956 21.1655 9.17998C21.1655 7.97998 20.8475 6.89298 20.2461 6.02998C19.6935 5.24076 18.9195 4.67103 18.0424 4.40797C16.4786 3.94397 14.2813 4.42897 12.8031 7.18198C12.7527 7.27606 12.6806 7.35409 12.5941 7.40832C12.5075 7.46254 12.4095 7.49107 12.3097 7.49107C12.2099 7.49107 12.1119 7.46254 12.0253 7.40832C11.9388 7.35409 11.8667 7.27606 11.8163 7.18198C10.6548 5.01497 9.04562 4.25297 7.65065 4.25297V4.25297Z" fill="black"/>
</svg>
